<svg xmlns="http://www.w3.org/2000/svg" viewBox="0 0 100 100">
  <path d="M49,8 C33,8 24,16 24,30 L24,44 L52,44 L52,48 L18,48 C7,48 4,56 4,68 C4,80 10,90 24,90 L36,90 L36,80 L26,80 C19,80 14,76 14,68 C14,62 18,58 26,58 L58,58 C69,58 76,51 76,40 L76,30 C76,16 65,8 49,8Z M38,24 C41,24 43,26 43,29 C43,32 41,34 38,34 C35,34 33,32 33,29 C33,26 35,24 38,24Z" fill="#3776AB"/>
  <path d="M51,92 C67,92 76,84 76,70 L76,56 L48,56 L48,52 L82,52 C93,52 96,44 96,32 C96,20 90,10 76,10 L64,10 L64,20 L74,20 C81,20 86,24 86,32 C86,38 82,42 74,42 L42,42 C31,42 24,49 24,60 L24,70 C24,84 35,92 51,92Z M62,76 C59,76 57,74 57,71 C57,68 59,66 62,66 C65,66 67,68 67,71 C67,74 65,76 62,76Z" fill="#FFD845"/>
</svg>
